<svg xmlns="http://www.w3.org/2000/svg"
     width="256" height="256" viewBox="0 0 128 128"
     fill="none" stroke="#BB7653" role="img"
     aria-labelledby="ninetykept-title ninetykept-description">
  <title id="ninetykept-title">90KEPT</title>
  <desc id="ninetykept-description">A dusky terracotta mark: four quiet corner brackets frame an open circle that flows into a checkmark. One focused promise, kept.</desc>
  <g stroke-width="5" stroke-linecap="round" stroke-linejoin="round">
    <path d="M 32 15 H 19 A 4 4 0 0 0 15 19 V 32" />
    <path d="M 96 15 H 109 A 4 4 0 0 1 113 19 V 32" />
    <path d="M 15 96 V 109 A 4 4 0 0 0 19 113 H 32" />
    <path d="M 96 113 H 109 A 4 4 0 0 0 113 109 V 96" />
  </g>
  <path d="M 92 83
           C 86 92 76 98 64 98
           C 45.22 98 30 82.78 30 64
           C 30 45.22 45.22 30 64 30
           C 77 30 89 38 94 50
           L 68 78 L 55 65"
        stroke-width="7.5" stroke-linecap="round" stroke-linejoin="round" />
</svg>
